<svg width="210" height="210" viewBox="0 0 210 210" fill="none" xmlns="http://www.w3.org/2000/svg">
<g clip-path="url(#clip0_1737_134)">
<path d="M37.9998 99.9995H131.5C134.3 99.9995 136.5 102.2 136.5 105C136.5 107.8 134.3 110 131.5 110H37.9998C35.1998 110 32.9998 107.8 32.9998 105C32.9998 102.2 35.1998 99.9995 37.9998 99.9995Z" fill="#2680D1"/>
<path d="M41.9998 79.9995H116.5C119.3 79.9995 121.5 82.1995 121.5 84.9995C121.5 87.7995 119.3 89.9995 116.5 89.9995H41.9998C39.1998 89.9995 36.9998 87.7995 36.9998 84.9995C36.9998 82.1995 39.1998 79.9995 41.9998 79.9995Z" fill="#2680D1"/>
<path d="M51.9998 59.9995H103.5C106.3 59.9995 108.5 62.1995 108.5 64.9995C108.5 67.7995 106.3 69.9995 103.5 69.9995H51.9998C49.1998 69.9995 46.9998 67.7995 46.9998 64.9995C46.9998 62.1995 49.1998 59.9995 51.9998 59.9995Z" fill="#2680D1"/>
<path d="M41.9998 120H116.5C119.3 120 121.5 122.2 121.5 125C121.5 127.8 119.3 130 116.5 130H41.9998C39.1998 130 36.9998 127.8 36.9998 125C36.9998 122.2 39.1998 120 41.9998 120Z" fill="#2680D1"/>
<path d="M51.9998 140H103.5C106.3 140 108.5 142.2 108.5 145C108.5 147.8 106.3 150 103.5 150H51.9998C49.1998 150 46.9998 147.8 46.9998 145C46.9998 142.2 49.1998 140 51.9998 140Z" fill="#2680D1"/>
<path d="M100 40H162C164.8 40 167 42.2 167 45C167 47.8 164.8 50 162 50H100C97.2 50 95 47.8 95 45C95 42.2 97.2 40 100 40Z" fill="#F58220"/>
<path d="M150.433 60L176.067 60C178.829 60 181 62.2 181 65C181 67.8 178.829 70 176.067 70H150.433C147.671 70 145.5 67.8 145.5 65C145.5 62.2 147.671 60 150.433 60Z" fill="#F58220"/>
<path d="M159 80H189C191.8 80 194 82.2 194 85C194 87.8 191.8 90 189 90H159C156.2 90 154 87.8 154 85C154 82.2 156.2 80 159 80Z" fill="#F58220"/>
<path d="M162.5 100H205C207.8 100 210 102.2 210 105C210 107.8 207.8 110 205 110H162.5C159.7 110 157.5 107.8 157.5 105C157.5 102.2 159.7 100 162.5 100Z" fill="#F58220"/>
<path d="M5 40L80 40C82.8 40 85 42.2 85 45C85 47.8 82.8 50 80 50H5C2.2 50 0 47.8 0 45C0 42.2 2.2 40 5 40Z" fill="#F58220"/>
<path d="M5 60L32 60C34.8 60 37 62.2 37 65C37 67.8 34.8 70 32 70H5C2.2 70 0 67.8 0 65C0 62.2 2.2 60 5 60Z" fill="#F58220"/>
<path d="M5 80L22 80C24.8 80 27 82.2 27 85C27 87.8 24.8 90 22 90H5C2.2 90 0 87.8 0 85C0 82.2 2.2 80 5 80Z" fill="#F58220"/>
<path d="M100 170L162 170C164.8 170 167 167.8 167 165C167 162.2 164.8 160 162 160H100C97.2 160 95 162.2 95 165C95 167.8 97.2 170 100 170Z" fill="#F58220"/>
<path d="M149.933 150L176.067 150C178.829 150 181 147.8 181 145C181 142.2 178.829 140 176.067 140H149.933C147.171 140 145 142.2 145 145C145 147.8 147.171 150 149.933 150Z" fill="#F58220"/>
<path d="M159 130L189.5 130C192.3 130 194.5 127.8 194.5 125C194.5 122.2 192.3 120 189.5 120H159C156.2 120 154 122.2 154 125C154 127.8 156.2 130 159 130Z" fill="#F58220"/>
<path d="M5 170H80C82.8 170 85 167.8 85 165C85 162.2 82.8 160 80 160H5C2.2 160 0 162.2 0 165C0 167.8 2.2 170 5 170Z" fill="#F58220"/>
<path d="M5 150L32 150C34.8 150 37 147.8 37 145C37 142.2 34.8 140 32 140H5C2.2 140 0 142.2 0 145C0 147.8 2.2 150 5 150Z" fill="#F58220"/>
<path d="M5 130L22 130C24.8 130 27 127.8 27 125C27 122.2 24.8 120 22 120H5C2.2 120 0 122.2 0 125C0 127.8 2.2 130 5 130Z" fill="#F58220"/>
<path d="M5 100L18 100C20.8 100 23 102.2 23 105C23 107.8 20.8 110 18 110H5C2.2 110 0 107.8 0 105C0 102.2 2.2 100 5 100Z" fill="#F58220"/>
<path d="M145 0H205C207.8 0 210 2.2 210 5C210 7.8 207.8 10 205 10H145C142.2 10 140 7.8 140 5C140 2.2 142.2 0 145 0Z" fill="#C6CBD0" fill-opacity="0.5"/>
<path d="M190 140L205 140C207.8 140 210 142.2 210 145C210 147.8 207.8 150 205 150H190C187.2 150 185 147.8 185 145C185 142.2 187.2 140 190 140Z" fill="#C6CBD0" fill-opacity="0.5"/>
<path d="M137 80L139 80C141.8 80 144 82.2 144 85C144 87.8 141.8 90 139 90H137C134.2 90 132 87.8 132 85C132 82.2 134.2 80 137 80Z" fill="#C6CBD0" fill-opacity="0.5"/>
<path d="M137 130L139 130C141.8 130 144 127.8 144 125C144 122.2 141.8 120 139 120H137C134.2 120 132 122.2 132 125C132 127.8 134.2 130 137 130Z" fill="#C6CBD0" fill-opacity="0.5"/>
<path d="M124 60L130 60C132.8 60 135 62.2 135 65C135 67.8 132.8 70 130 70H124C121.2 70 119 67.8 119 65C119 62.2 121.2 60 124 60Z" fill="#C6CBD0" fill-opacity="0.5"/>
<path d="M124 150L130 150C132.8 150 135 147.8 135 145C135 142.2 132.8 140 130 140H124C121.2 140 119 142.2 119 145C119 147.8 121.2 150 124 150Z" fill="#C6CBD0" fill-opacity="0.5"/>
<path d="M195 20H205C207.8 20 210 22.2 210 25C210 27.8 207.8 30 205 30H195C192.2 30 190 27.8 190 25C190 22.2 192.2 20 195 20Z" fill="#C6CBD0" fill-opacity="0.5"/>
<path d="M185 180H205C207.8 180 210 182.2 210 185C210 187.8 207.8 190 205 190H185C182.2 190 180 187.8 180 185C180 182.2 182.2 180 185 180Z" fill="#C6CBD0" fill-opacity="0.5"/>
<path d="M5 20L45 20C47.8 20 50 22.2 50 25C50 27.8 47.8 30 45 30H5C2.2 30 0 27.8 0 25C0 22.2 2.2 20 5 20Z" fill="#C6CBD0" fill-opacity="0.5"/>
<path d="M5 200H35C37.8 200 40 202.2 40 205C40 207.8 37.8 210 35 210H5C2.2 210 0 207.8 0 205C0 202.2 2.2 200 5 200Z" fill="#C6CBD0" fill-opacity="0.5"/>
<path d="M35 180H85C87.8 180 90 182.2 90 185C90 187.8 87.8 190 85 190H35C32.2 190 30 187.8 30 185C30 182.2 32.2 180 35 180Z" fill="#C6CBD0" fill-opacity="0.5"/>
<path d="M105 180L165 180C167.8 180 170 182.2 170 185C170 187.8 167.8 190 165 190H105C102.2 190 100 187.8 100 185C100 182.2 102.2 180 105 180Z" fill="#C6CBD0" fill-opacity="0.5"/>
<path d="M175 200H205C207.8 200 210 202.2 210 205C210 207.8 207.8 210 205 210H175C172.2 210 170 207.8 170 205C170 202.2 172.2 200 175 200Z" fill="#C6CBD0" fill-opacity="0.5"/>
<path d="M196 60H205C207.8 60 210 62.2 210 65C210 67.8 207.8 70 205 70H196C193.2 70 191 67.8 191 65C191 62.2 193.2 60 196 60Z" fill="#C6CBD0" fill-opacity="0.5"/>
<path d="M182 40H205C207.8 40 210 42.2 210 45C210 47.8 207.8 50 205 50H182C179.2 50 177 47.8 177 45C177 42.2 179.2 40 182 40Z" fill="#C6CBD0" fill-opacity="0.5"/>
<path d="M181 160H205C207.8 160 210 162.2 210 165C210 167.8 207.8 170 205 170H181C178.2 170 176 167.8 176 165C176 162.2 178.2 160 181 160Z" fill="#C6CBD0" fill-opacity="0.5"/>
<path d="M125 20L175 20C177.8 20 180 22.2 180 25C180 27.8 177.8 30 175 30H125C122.2 30 120 27.8 120 25C120 22.2 122.2 20 125 20Z" fill="#C6CBD0" fill-opacity="0.5"/>
<path d="M5 0L65 0C67.8 0 70 2.2 70 5C70 7.8 67.8 10 65 10H5C2.2 10 0 7.8 0 5C0 2.2 2.2 0 5 0Z" fill="#C6CBD0" fill-opacity="0.5"/>
<path d="M55 200H155C157.8 200 160 202.2 160 205C160 207.8 157.8 210 155 210H55C52.2 210 50 207.8 50 205C50 202.2 52.2 200 55 200Z" fill="#C6CBD0" fill-opacity="0.5"/>
<path d="M65 20L105 20C107.8 20 110 22.2 110 25C110 27.8 107.8 30 105 30H65C62.2 30 60 27.8 60 25C60 22.2 62.2 20 65 20Z" fill="#C6CBD0" fill-opacity="0.5"/>
<path d="M85 0H125C127.8 0 130 2.2 130 5C130 7.8 127.8 10 125 10H85C82.2 10 80 7.8 80 5C80 2.2 82.2 0 85 0Z" fill="#C6CBD0" fill-opacity="0.5"/>
<path d="M205 80C207.8 80 210 82.2 210 85C210 87.8 207.8 90 205 90C202.2 90 200 87.8 200 85C200 82.2 202.2 80 205 80Z" fill="#C6CBD0" fill-opacity="0.5"/>
<path d="M205 120C207.8 120 210 122.2 210 125C210 127.8 207.8 130 205 130C202.2 130 200 127.8 200 125C200 122.2 202.2 120 205 120Z" fill="#C6CBD0" fill-opacity="0.5"/>
<path d="M147 100C149.8 100 152 102.2 152 105C152 107.8 149.8 110 147 110C144.2 110 142 107.8 142 105C142 102.2 144.2 100 147 100Z" fill="#C6CBD0" fill-opacity="0.5"/>
<path d="M5 180H15C17.8 180 20 182.2 20 185C20 187.8 17.8 190 15 190H5C2.2 190 0 187.8 0 185C0 182.2 2.2 180 5 180Z" fill="#C6CBD0" fill-opacity="0.5"/>
</g>
<defs>
<clipPath id="clip0_1737_134">
<rect width="210" height="210" fill="white"/>
</clipPath>
</defs>
</svg>
